<?xml version="1.0" standalone="no"?>
<!DOCTYPE svg PUBLIC "-//W3C//DTD SVG 1.1//EN" "http://www.w3.org/Graphics/SVG/1.1/DTD/svg11.dtd" >
<svg xmlns="http://www.w3.org/2000/svg">
<metadata>Generated by IcoMoon</metadata>
<defs>
<font id="calculate-profit-icons" horiz-adv-x="1024">
<font-face units-per-em="1024" ascent="960" descent="-64" />
<missing-glyph horiz-adv-x="1024" />
<glyph unicode="&#x20;" horiz-adv-x="512" d="" />
<glyph unicode="&#xe900;" glyph-name="close-square" d="M427.959 577.294c-12.497 12.497-32.758 12.497-45.255 0s-12.497-32.758 0-45.254l84.039-84.041-84.038-84.041c-12.497-12.497-12.497-32.755 0-45.252s32.758-12.497 45.254 0l84.041 84.036 84.036-84.036c12.497-12.497 32.759-12.497 45.257 0s12.497 32.759 0 45.252l-84.041 84.041 84.041 84.041c12.497 12.495 12.497 32.756 0 45.253s-32.759 12.497-45.257 0l-84.036-84.041-84.041 84.042zM514.449 906.667h-4.898c-98.49 0-175.676 0.001-235.899-8.096-61.642-8.288-110.283-25.582-148.462-63.761s-55.473-86.819-63.761-148.462c-8.097-60.223-8.096-137.408-8.096-235.899v-4.898c0-98.492-0.001-175.676 8.096-235.9 8.288-61.641 25.582-110.285 63.761-148.463s86.819-55.471 148.462-63.761c60.223-8.094 137.409-8.094 235.899-8.094h4.898c98.492 0 175.676 0 235.9 8.094 61.641 8.29 110.285 25.583 148.463 63.761s55.471 86.822 63.761 148.463c8.094 60.224 8.094 137.408 8.094 235.9v4.898c0 98.49 0 175.676-8.094 235.899-8.29 61.642-25.583 110.283-63.761 148.462s-86.822 55.473-148.463 63.761c-60.224 8.097-137.408 8.096-235.9 8.096zM170.445 789.555c24.305 24.305 57.189 38.253 111.735 45.586 55.466 7.457 128.349 7.525 229.821 7.525 101.47 0 174.353-0.068 229.82-7.525 54.545-7.334 87.428-21.281 111.735-45.586s38.255-57.189 45.585-111.735c7.458-55.466 7.526-128.349 7.526-229.821 0-101.47-0.068-174.353-7.526-229.82-7.33-54.545-21.278-87.428-45.585-111.735s-57.19-38.255-111.735-45.585c-55.467-7.458-128.35-7.526-229.82-7.526-101.471 0-174.355 0.068-229.821 7.526-54.545 7.33-87.43 21.278-111.735 45.585s-38.253 57.19-45.586 111.735c-7.457 55.467-7.525 128.35-7.525 229.82 0 101.471 0.068 174.355 7.525 229.821 7.334 54.545 21.281 87.43 45.586 111.735z" />
<glyph unicode="&#xe901;" glyph-name="check-circle" d="M683.959 532.041c12.497 12.495 12.497 32.757 0 45.254s-32.755 12.497-45.252 0l-190.707-190.704-62.706 62.703c-12.497 12.497-32.758 12.497-45.255 0s-12.497-32.755 0-45.252l85.333-85.333c12.498-12.497 32.756-12.497 45.254 0l213.333 213.333zM512 906.667c-253.315 0-458.667-205.352-458.667-458.667s205.352-458.667 458.667-458.667c253.316 0 458.667 205.35 458.667 458.667 0 253.315-205.35 458.667-458.667 458.667zM117.333 448c0 217.968 176.698 394.667 394.667 394.667 217.967 0 394.667-176.698 394.667-394.667 0-217.967-176.7-394.667-394.667-394.667-217.968 0-394.667 176.7-394.667 394.667z" />
<glyph unicode="&#xe902;" glyph-name="info-circle" d="M512 202.667c17.673 0 32 14.327 32 32v256c0 17.673-14.327 32-32 32s-32-14.327-32-32v-256c0-17.673 14.327-32 32-32zM512 661.333c23.565 0 42.667-19.103 42.667-42.667s-19.102-42.667-42.667-42.667c-23.565 0-42.667 19.103-42.667 42.667s19.102 42.667 42.667 42.667zM53.333 448c0 253.315 205.352 458.667 458.667 458.667s458.667-205.352 458.667-458.667c0-253.316-205.35-458.667-458.667-458.667-253.315 0-458.667 205.35-458.667 458.667zM512 842.667c-217.968 0-394.667-176.698-394.667-394.667 0-217.967 176.698-394.667 394.667-394.667 217.967 0 394.667 176.7 394.667 394.667 0 217.968-176.7 394.667-394.667 394.667z" />
<glyph unicode="&#xe903;" glyph-name="bell-off" d="M426.666 544c-17.673 0-32 14.327-32 32s14.327 32 32 32h170.668c12.941 0 24.61-7.796 29.564-19.754s2.214-25.721-6.938-34.873l-116.041-116.039h93.414c17.673 0 32-14.327 32-32s-14.327-32-32-32h-170.668c-12.943 0-24.611 7.795-29.564 19.755-4.953 11.955-2.215 25.719 6.937 34.871l116.038 116.041h-93.411zM181.335 576c0 182.622 148.044 330.667 330.665 330.667 182.622 0 330.667-148.044 330.667-330.667v-30.042c0-29.734 8.802-58.807 25.297-83.546l49.007-73.51c56.879-85.321 13.457-201.289-85.47-228.267-32.239-8.794-64.755-16.23-97.455-22.315l-0.081-0.218c-32.811-87.548-120.503-148.77-221.965-148.77s-189.155 61.222-221.966 148.77l-0.081 0.218c-32.7 6.084-65.212 13.521-97.451 22.315-98.927 26.978-142.349 142.946-85.47 228.267l49.007 73.51c16.494 24.738 25.296 53.811 25.296 83.546v30.042zM367.936 126.426c30.334-43.588 83.094-73.092 144.064-73.092 60.966 0 113.728 29.504 144.060 73.088-95.697-11.435-192.427-11.43-288.124 0.004zM512 842.667c-147.274 0-266.665-119.391-266.665-266.667v-30.042c0-42.372-12.542-83.793-36.045-119.049l-49.007-73.51c-32.647-48.969-7.724-115.533 49.058-131.021 198.155-54.042 407.166-54.042 605.319 0 56.785 15.488 81.707 82.052 49.058 131.021l-49.007 73.51c-23.501 35.255-36.045 76.676-36.045 119.049v30.042c0 147.276-119.39 266.667-266.667 266.667z" />
<glyph unicode="&#xe904;" glyph-name="increase-square" d="M544 576c0 17.673-14.327 32-32 32s-32-14.327-32-32v-96h-96c-17.673 0-32-14.327-32-32s14.327-32 32-32h96v-96c0-17.673 14.327-32 32-32s32 14.327 32 32v96h96c17.673 0 32 14.327 32 32s-14.327 32-32 32h-96v96zM514.449 906.667h-4.898c-98.49 0-175.676 0.001-235.899-8.096-61.642-8.288-110.283-25.582-148.462-63.761s-55.473-86.819-63.761-148.462c-8.097-60.223-8.096-137.408-8.096-235.899v-4.898c0-98.492-0.001-175.676 8.096-235.9 8.288-61.641 25.582-110.285 63.761-148.463s86.819-55.471 148.462-63.761c60.223-8.094 137.409-8.094 235.899-8.094h4.898c98.492 0 175.676 0 235.9 8.094 61.641 8.29 110.285 25.583 148.463 63.761s55.471 86.822 63.761 148.463c8.094 60.224 8.094 137.408 8.094 235.9v4.898c0 98.49 0 175.676-8.094 235.899-8.29 61.642-25.583 110.283-63.761 148.462s-86.822 55.473-148.463 63.761c-60.224 8.097-137.408 8.096-235.9 8.096zM170.445 789.555c24.305 24.305 57.189 38.253 111.735 45.586 55.466 7.457 128.349 7.525 229.821 7.525 101.47 0 174.353-0.068 229.82-7.525 54.545-7.334 87.428-21.281 111.735-45.586s38.255-57.189 45.585-111.735c7.458-55.466 7.526-128.349 7.526-229.821 0-101.47-0.068-174.353-7.526-229.82-7.33-54.545-21.278-87.428-45.585-111.735s-57.19-38.255-111.735-45.585c-55.467-7.458-128.35-7.526-229.82-7.526-101.471 0-174.355 0.068-229.821 7.526-54.545 7.33-87.43 21.278-111.735 45.585s-38.253 57.19-45.586 111.735c-7.457 55.467-7.525 128.35-7.525 229.82 0 101.471 0.068 174.355 7.525 229.821 7.334 54.545 21.281 87.43 45.586 111.735z" />
<glyph unicode="&#xe905;" glyph-name="eye" d="M512 608c-88.366 0-160-71.634-160-160s71.634-160 160-160c88.367 0 160 71.633 160 160s-71.633 160-160 160zM416 448c0 53.018 42.982 96 96 96s96-42.982 96-96c0-53.018-42.982-96-96-96s-96 42.982-96 96zM512 821.333c-192.603 0-322.334-115.379-397.629-213.199l-1.358-1.764c-17.028-22.115-32.712-42.484-43.351-66.569-11.394-25.792-16.328-53.901-16.328-91.802s4.934-66.010 16.328-91.802c10.64-24.085 26.323-44.454 43.352-66.569l1.358-1.762c75.295-97.822 205.026-213.201 397.629-213.201s322.334 115.379 397.628 213.201l1.357 1.762c17.033 22.114 32.713 42.483 43.354 66.569 11.396 25.792 16.329 53.901 16.329 91.802s-4.932 66.010-16.329 91.802c-10.641 24.085-26.321 44.454-43.354 66.569l-1.357 1.763c-75.294 97.82-205.026 213.199-397.628 213.199zM165.087 569.097c69.522 90.32 182.662 188.237 346.913 188.237s277.393-97.917 346.914-188.237c18.714-24.311 29.675-38.839 36.881-55.155 6.741-15.253 10.871-33.894 10.871-65.941s-4.13-50.688-10.871-65.941c-7.206-16.316-18.167-30.844-36.881-55.155-69.521-90.321-182.665-188.237-346.914-188.237-164.251 0-277.391 97.916-346.913 188.237-18.713 24.311-29.674 38.839-36.884 55.155-6.738 15.253-10.87 33.894-10.87 65.941s4.132 50.688 10.87 65.941c7.21 16.316 18.17 30.844 36.884 55.155z" />
<glyph unicode="&#xe906;" glyph-name="eye-closed" d="M951.27 690.738c16.243-6.962 23.765-25.774 16.806-42.018l-29.414 12.605c29.414-12.605 29.419-12.598 29.414-12.605l-0.030-0.072-0.047-0.106-0.137-0.314-0.457-1.027c-0.384-0.859-0.93-2.063-1.638-3.586-1.421-3.044-3.494-7.367-6.246-12.761-5.5-10.78-13.709-25.878-24.764-43.619-18.159-29.143-44.203-65.755-78.784-102.133l41.318-41.314c12.493-12.497 12.493-32.759 0-45.257-12.497-12.497-32.759-12.497-45.257 0l-42.692 42.692c-28.147-23.582-60.425-45.713-97.024-63.898l39.834-61.218c9.638-14.81 5.444-34.633-9.37-44.271s-34.637-5.444-44.275 9.37l-46.473 71.42c-33.25-10.859-69.252-18.24-108.041-20.885v-75.75c0-17.673-14.327-32-32-32s-32 14.327-32 32v75.75c-37.589 2.564-72.568 9.574-104.963 19.891l-45.827-70.43c-9.639-14.814-29.461-19.008-44.274-9.37s-19.008 29.461-9.37 44.275l38.93 59.827c-36.881 18.014-69.422 40.047-97.812 63.599l-41.002-41.003c-12.497-12.497-32.758-12.497-45.255 0s-12.497 32.755 0 45.252l39.414 39.415c-35.181 36.681-61.666 73.739-80.119 103.259-11.218 17.947-19.549 33.238-25.126 44.159-2.79 5.464-4.897 9.845-6.336 12.93-0.72 1.543-1.273 2.763-1.662 3.633l-0.46 1.040-0.185 0.425-0.017 0.041c-0.003 0.008-0.014 0.032 29.399 12.637l-29.399-12.637c-6.961 16.244 0.55 35.088 16.794 42.050 16.231 6.956 35.025-0.551 42.001-16.767-0.003 0.006 0.003-0.006 0 0l0.041-0.093 0.259-0.585c0.251-0.563 0.661-1.467 1.229-2.686 1.138-2.439 2.912-6.134 5.335-10.88 4.851-9.498 12.282-23.159 22.398-39.344 20.293-32.464 51.066-74.56 93.051-113.579 36.945-34.334 82.218-65.963 136.364-86.793 40.725-15.667 86.773-25.353 138.592-25.353 52.979 0 99.93 10.121 141.333 26.419 53.82 21.184 98.786 53.018 135.433 87.415 41.37 38.828 71.689 80.506 91.682 112.589 9.967 15.996 17.284 29.48 22.063 38.85 2.389 4.681 4.134 8.324 5.257 10.727 0.559 1.201 0.964 2.092 1.212 2.646l0.252 0.575 0.026 0.051c-0.004-0.004 0 0.004 0 0zM951.27 690.738c-16.243 6.96-35.055-0.572-42.018-16.807l42.018 16.807zM114.726 673.971c-0.003 0.006 0.003-0.006 0 0v0z" />
<glyph unicode="&#xe907;" glyph-name="decrease-square" d="M640 416c17.673 0 32 14.327 32 32s-14.327 32-32 32h-256c-17.673 0-32-14.327-32-32s14.327-32 32-32h256zM514.449 906.667h-4.898c-98.49 0-175.676 0.001-235.899-8.096-61.642-8.288-110.283-25.582-148.462-63.761s-55.473-86.819-63.761-148.462c-8.097-60.223-8.096-137.408-8.096-235.899v-4.898c0-98.492-0.001-175.676 8.096-235.9 8.288-61.641 25.582-110.285 63.761-148.463s86.819-55.471 148.462-63.761c60.223-8.094 137.409-8.094 235.899-8.094h4.898c98.492 0 175.676 0 235.9 8.094 61.641 8.29 110.285 25.583 148.463 63.761s55.471 86.822 63.761 148.463c8.094 60.224 8.094 137.408 8.094 235.9v4.898c0 98.49 0 175.676-8.094 235.899-8.29 61.642-25.583 110.283-63.761 148.462s-86.822 55.473-148.463 63.761c-60.224 8.097-137.408 8.096-235.9 8.096zM170.445 789.555c24.305 24.305 57.189 38.253 111.735 45.586 55.466 7.457 128.349 7.525 229.821 7.525 101.47 0 174.353-0.068 229.82-7.525 54.545-7.334 87.428-21.281 111.735-45.586s38.255-57.189 45.585-111.735c7.458-55.466 7.526-128.349 7.526-229.821 0-101.47-0.068-174.353-7.526-229.82-7.33-54.545-21.278-87.428-45.585-111.735s-57.19-38.255-111.735-45.585c-55.467-7.458-128.35-7.526-229.82-7.526-101.471 0-174.355 0.068-229.821 7.526-54.545 7.33-87.43 21.278-111.735 45.585s-38.253 57.19-45.586 111.735c-7.457 55.467-7.525 128.35-7.525 229.82 0 101.471 0.068 174.355 7.525 229.821 7.334 54.545 21.281 87.43 45.586 111.735z" />
<glyph unicode="&#xe908;" glyph-name="danger-circle" d="M512 693.333c17.673 0 32-14.327 32-32v-256c0-17.673-14.327-32-32-32s-32 14.327-32 32v256c0 17.673 14.327 32 32 32zM512 234.667c23.565 0 42.667 19.102 42.667 42.667s-19.102 42.667-42.667 42.667c-23.565 0-42.667-19.102-42.667-42.667s19.102-42.667 42.667-42.667zM53.333 448c0 253.315 205.352 458.667 458.667 458.667s458.667-205.352 458.667-458.667c0-253.316-205.35-458.667-458.667-458.667-253.315 0-458.667 205.35-458.667 458.667zM512 842.667c-217.968 0-394.667-176.698-394.667-394.667 0-217.967 176.698-394.667 394.667-394.667 217.967 0 394.667 176.7 394.667 394.667 0 217.968-176.7 394.667-394.667 394.667z" />
<glyph unicode="&#xe909;" glyph-name="check" d="M789.047 664.106c13.312-11.623 14.682-31.838 3.059-45.151l-335.236-384.002c-6.080-6.959-14.869-10.953-24.107-10.953-9.242 0-18.031 3.994-24.108 10.953l-134.095 153.6c-11.623 13.316-10.252 33.532 3.061 45.154s33.528 10.253 45.151-3.063l109.99-125.986 311.13 356.387c11.622 13.314 31.838 14.684 45.154 3.061z" />
<glyph unicode="&#xe90a;" glyph-name="sun" d="M512 906.667c17.673 0 32-14.327 32-32v-85.333c0-17.673-14.327-32-32-32s-32 14.327-32 32v85.333c0 17.673 14.327 32 32 32zM156.529 801.447c11.925 13.043 32.166 13.949 45.21 2.024l94.806-86.681c13.043-11.925 13.949-32.166 2.024-45.209s-32.166-13.949-45.21-2.024l-94.806 86.681c-13.043 11.925-13.949 32.166-2.024 45.21zM867.473 801.447c11.925-13.043 11.017-33.284-2.027-45.21l-94.805-86.681c-13.043-11.925-33.284-11.019-45.21 2.024s-11.021 33.284 2.022 45.209l94.81 86.681c13.043 11.925 33.28 11.019 45.21-2.024zM512 629.333c-100.148 0-181.333-81.186-181.333-181.333s81.186-181.333 181.333-181.333c100.147 0 181.333 81.186 181.333 181.333s-81.186 181.333-181.333 181.333zM266.667 448c0 135.494 109.839 245.333 245.333 245.333 135.492 0 245.333-109.839 245.333-245.333 0-135.492-109.841-245.333-245.333-245.333-135.494 0-245.333 109.841-245.333 245.333zM53.333 448c0 17.673 14.327 32 32 32h85.333c17.673 0 32-14.327 32-32s-14.327-32-32-32h-85.333c-17.673 0-32 14.327-32 32zM821.333 448c0 17.673 14.327 32 32 32h85.333c17.673 0 32-14.327 32-32s-14.327-32-32-32h-85.333c-17.673 0-32 14.327-32 32zM726.421 233.591c12.497 12.497 32.759 12.497 45.257 0l94.805-94.818c12.497-12.497 12.493-32.759-0.004-45.257s-32.759-12.493-45.252 0.004l-94.805 94.818c-12.497 12.497-12.497 32.755 0 45.252zM297.586 233.587c12.497-12.497 12.497-32.759 0-45.257l-94.815-94.814c-12.497-12.497-32.758-12.497-45.255 0s-12.497 32.759 0 45.252l94.815 94.818c12.497 12.497 32.758 12.497 45.255 0zM512 138.667c17.673 0 32-14.327 32-32v-85.333c0-17.673-14.327-32-32-32s-32 14.327-32 32v85.333c0 17.673 14.327 32 32 32z" />
<glyph unicode="&#xe90b;" glyph-name="settings" d="M512 608c-88.365 0-160-71.634-160-160s71.635-160 160-160c88.367 0 160 71.633 160 160s-71.633 160-160 160zM416 448c0 53.018 42.982 96 96 96s96-42.982 96-96c0-53.018-42.982-96-96-96s-96 42.982-96 96zM510.921 906.667c-18.961 0-34.795 0-47.791-0.886-13.53-0.923-26.308-2.913-38.698-8.045-28.75-11.909-51.592-34.75-63.5-63.5-6.199-14.967-7.878-30.741-8.52-47.887-0.515-13.783-7.471-25.282-17.736-31.209s-23.701-6.2-35.895 0.244c-15.169 8.017-29.669 14.451-45.731 16.565-30.852 4.062-62.055-4.299-86.743-23.243-10.639-8.164-18.753-18.236-26.317-29.492-7.267-10.812-15.182-24.523-24.663-40.946l-1.077-1.866c-9.482-16.423-17.398-30.132-23.128-41.831-5.965-12.179-10.632-24.241-12.382-37.537-4.062-30.853 4.299-62.055 23.243-86.745 9.861-12.847 22.68-22.191 37.206-31.317 11.681-7.339 18.164-19.115 18.163-30.972 0-11.853-6.483-23.629-18.163-30.967-14.527-9.126-27.348-18.47-37.21-31.322-18.944-24.687-27.305-55.889-23.243-86.741 1.751-13.295 6.417-25.361 12.382-37.538 5.731-11.699 13.646-25.408 23.128-41.83l1.078-1.869c9.482-16.422 17.397-30.131 24.663-40.943 7.564-11.255 15.677-21.329 26.317-29.491 24.688-18.944 55.891-27.307 86.743-23.245 16.061 2.116 30.561 8.546 45.729 16.563 12.195 6.447 25.634 6.174 35.9 0.243 10.266-5.926 17.223-17.425 17.738-31.211 0.641-17.143 2.321-32.917 8.52-47.885 11.909-28.749 34.751-51.593 63.5-63.501 12.39-5.133 25.169-7.121 38.698-8.043 12.996-0.887 28.83-0.887 47.791-0.887h2.155c18.965 0 34.795 0 47.795 0.887 13.53 0.922 26.308 2.91 38.699 8.043 28.749 11.908 51.593 34.752 63.501 63.501 6.199 14.967 7.876 30.741 8.516 47.889 0.516 13.781 7.471 25.28 17.737 31.211 10.266 5.926 23.706 6.199 35.9-0.243 15.168-8.017 29.666-14.451 45.73-16.563 30.852-4.062 62.054 4.297 86.741 23.241 10.641 8.166 18.752 18.236 26.317 29.491 7.266 10.812 15.181 24.521 24.661 40.943l1.079 1.869c9.481 16.422 17.399 30.135 23.13 41.835 5.965 12.177 10.628 24.239 12.382 37.534 4.062 30.857-4.301 62.059-23.245 86.746-9.86 12.851-22.682 22.191-37.205 31.317-11.682 7.339-18.163 19.115-18.163 30.972 0 11.853 6.481 23.625 18.159 30.963 14.532 9.126 27.354 18.466 37.214 31.322 18.944 24.687 27.307 55.889 23.245 86.742-1.754 13.296-6.417 25.359-12.382 37.537-5.73 11.698-13.645 25.407-23.13 41.828l-1.075 1.868c-9.485 16.424-17.399 30.135-24.666 40.948-7.565 11.255-15.676 21.328-26.317 29.492-24.687 18.944-55.889 27.305-86.746 23.243-16.060-2.115-30.558-8.547-45.726-16.564-12.194-6.446-25.634-6.171-35.9-0.244s-17.225 17.428-17.741 31.212c-0.64 17.145-2.317 32.918-8.516 47.884-11.908 28.75-34.752 51.592-63.501 63.5-12.39 5.132-25.169 7.122-38.699 8.045-13.001 0.887-28.83 0.887-47.795 0.886h-2.155zM448.922 838.607c3.294 1.364 8.294 2.621 18.564 3.322 10.56 0.72 24.196 0.738 44.514 0.738s33.954-0.017 44.51-0.738c10.274-0.701 15.275-1.958 18.564-3.322 13.069-5.413 23.454-15.796 28.864-28.864 1.711-4.122 3.123-10.548 3.695-25.784 1.263-33.808 18.714-66.36 49.694-84.246 30.976-17.886 67.895-16.722 97.805-0.913 13.478 7.124 19.755 9.112 24.175 9.694 14.025 1.846 28.207-1.954 39.428-10.565 2.829-2.169 6.417-5.871 12.16-14.416 5.905-8.784 12.736-20.584 22.895-38.18s16.964-29.414 21.619-38.918c4.527-9.245 5.939-14.205 6.404-17.738 1.847-14.024-1.954-28.207-10.564-39.429-2.718-3.54-7.573-7.979-20.489-16.090-28.642-18.001-48.107-49.387-48.111-85.154 0-35.772 19.465-67.162 48.111-85.163 12.911-8.111 17.766-12.548 20.484-16.090 8.61-11.221 12.412-25.404 10.564-39.428-0.465-3.533-1.877-8.491-6.404-17.737-4.655-9.502-11.46-21.321-21.619-38.916s-16.99-29.397-22.895-38.182c-5.743-8.542-9.331-12.245-12.16-14.413-11.221-8.614-25.404-12.412-39.428-10.569-4.42 0.585-10.697 2.573-24.175 9.694-29.909 15.812-66.829 16.973-97.809-0.913-30.972-17.886-48.422-50.436-49.685-84.245-0.572-15.236-1.984-21.662-3.695-25.788-5.41-13.065-15.795-23.45-28.864-28.864-3.29-1.361-8.29-2.62-18.564-3.319-10.556-0.721-24.192-0.738-44.51-0.738s-33.954 0.017-44.514 0.738c-10.27 0.7-15.27 1.958-18.564 3.319-13.065 5.414-23.449 15.799-28.862 28.864-1.708 4.126-3.123 10.551-3.693 25.788-1.264 33.805-18.714 66.359-49.693 84.245s-67.895 16.721-97.806 0.913c-13.48-7.125-19.753-9.114-24.176-9.694-14.024-1.847-28.207 1.954-39.429 10.564-2.827 2.167-6.417 5.871-12.159 14.417-5.903 8.781-12.736 20.582-22.895 38.178s-16.962 29.414-21.617 38.916c-4.529 9.246-5.94 14.208-6.405 17.741-1.846 14.025 1.954 28.207 10.565 39.428 2.716 3.537 7.574 7.979 20.484 16.090 28.646 17.997 48.112 49.387 48.113 85.154 0.002 35.776-19.465 67.166-48.113 85.167-12.908 8.111-17.765 12.55-20.481 16.089-8.611 11.222-12.411 25.405-10.565 39.429 0.465 3.532 1.876 8.493 6.405 17.738 4.655 9.504 11.458 21.322 21.617 38.918s16.992 29.396 22.895 38.18c5.743 8.544 9.332 12.247 12.159 14.416 11.222 8.611 25.405 12.411 39.429 10.565 4.424-0.582 10.697-2.57 24.179-9.696 29.909-15.808 66.824-16.972 97.801 0.913s48.428 50.435 49.692 84.242c0.57 15.238 1.985 21.664 3.693 25.786 5.413 13.068 15.798 23.451 28.862 28.864z" />
<glyph unicode="&#xe90c;" glyph-name="moon" d="M868.928 869.362c-13.956 35.517-64.132 35.517-78.089 0l-18.261-46.473-46.276-18.319c-35.388-14.008-35.388-64.18 0-78.188l46.276-18.32 18.261-46.473c13.956-35.517 64.132-35.518 78.089 0l18.261 46.473 46.276 18.32c35.388 14.007 35.388 64.18 0 78.188l-46.276 18.319-18.261 46.473zM829.884 852.058l17.694-45.032c4.254-10.819 12.796-19.411 23.625-23.697l45.103-17.853-45.103-17.854c-10.829-4.286-19.371-12.877-23.625-23.697l-17.694-45.033-17.694 45.033c-4.254 10.819-12.796 19.41-23.625 23.697l-45.103 17.854 45.103 17.853c10.829 4.286 19.371 12.878 23.625 23.697l17.694 45.032zM703.919 620.936c-13.956 35.517-64.128 35.517-78.084 0l-6.596-16.78-16.691-6.609c-35.388-14.008-35.388-64.18 0-78.188l16.691-6.609 6.596-16.781c13.956-35.516 64.128-35.516 78.084 0l6.592 16.781 16.695 6.609c35.388 14.007 35.388 64.18 0 78.188l-16.695 6.609-6.592 16.78zM664.875 603.632l6.029-15.339c4.254-10.819 12.796-19.41 23.625-23.697l15.518-6.143-15.518-6.143c-10.829-4.286-19.371-12.878-23.625-23.697l-6.029-15.339-6.025 15.339c-4.254 10.819-12.796 19.41-23.625 23.697l-15.518 6.143 15.518 6.143c10.829 4.286 19.371 12.878 23.625 23.697l6.025 15.339zM470.076 840.466c-198.258-20.934-352.742-188.66-352.742-392.466 0-217.967 176.698-394.667 394.667-394.667 203.806 0 371.533 154.483 392.465 352.742-56.606-71.863-144.461-118.076-243.132-118.076-170.842 0-309.333 138.492-309.333 309.333 0 98.672 46.214 186.526 118.076 243.133zM53.333 448c0 253.315 205.352 458.667 458.667 458.667 30.575 0 45.884-24.374 48.503-43.788 2.526-18.676-4.378-42.427-25.847-55.398-71.181-43.014-118.656-121.052-118.656-210.147 0-135.492 109.841-245.333 245.333-245.333 89.097 0 167.134 47.475 210.146 118.656 12.971 21.47 36.723 28.373 55.398 25.847 19.413-2.62 43.789-17.929 43.789-48.503 0-253.316-205.35-458.667-458.667-458.667-253.315 0-458.667 205.35-458.667 458.667z" />
<glyph unicode="&#xe90d;" glyph-name="search" d="M490.667 842.667c-206.186 0-373.333-167.147-373.333-373.333s167.147-373.333 373.333-373.333c206.187 0 373.333 167.147 373.333 373.333s-167.147 373.333-373.333 373.333zM53.333 469.333c0 241.533 195.801 437.333 437.333 437.333s437.333-195.801 437.333-437.333c0-109.248-40.060-209.139-106.287-285.79l139.58-139.584c12.497-12.497 12.497-32.755 0-45.252s-32.755-12.497-45.252 0l-139.584 139.58c-76.651-66.227-176.542-106.287-285.79-106.287-241.533 0-437.333 195.802-437.333 437.333z" />
<glyph unicode="&#xe90e;" glyph-name="euro" d="M512 842.667c-217.968 0-394.667-176.698-394.667-394.667 0-217.967 176.698-394.667 394.667-394.667 217.967 0 394.667 176.7 394.667 394.667 0 217.968-176.7 394.667-394.667 394.667zM53.333 448c0 253.315 205.352 458.667 458.667 458.667s458.667-205.352 458.667-458.667c0-253.316-205.35-458.667-458.667-458.667-253.315 0-458.667 205.35-458.667 458.667zM290.269 480c-1.495-10.453-2.269-21.137-2.269-32s0.774-21.547 2.269-32h136.398c17.673 0 32-14.327 32-32s-14.327-32-32-32h-117.111c35.951-75.678 113.087-128 202.444-128 40.853 0 79.061 10.906 111.979 29.948 15.296 8.849 34.871 3.622 43.721-11.678 8.849-15.296 3.622-34.871-11.678-43.721-42.394-24.525-91.618-38.549-144.021-38.549-125.397 0-232.076 80.141-271.612 192h-27.055c-17.673 0-32 14.327-32 32s14.327 32 32 32h12.425c-1.161 10.509-1.758 21.184-1.758 32s0.596 21.491 1.758 32h-12.425c-17.673 0-32 14.327-32 32s14.327 32 32 32h27.055c39.536 111.858 146.215 192 271.612 192 52.403 0 101.628-14.025 144.021-38.549 15.3-8.849 20.527-28.425 11.678-43.723s-28.425-20.526-43.721-11.676c-32.917 19.040-71.125 29.948-111.979 29.948-89.357 0-166.493-52.322-202.444-128h117.111c17.673 0 32-14.327 32-32s-14.327-32-32-32h-136.398z" />
<glyph unicode="&#xe90f;" glyph-name="dollar" d="M512 842.667c-217.968 0-394.667-176.698-394.667-394.667 0-217.967 176.698-394.667 394.667-394.667 217.967 0 394.667 176.7 394.667 394.667 0 217.968-176.7 394.667-394.667 394.667zM53.333 448c0 253.315 205.352 458.667 458.667 458.667s458.667-205.352 458.667-458.667c0-253.316-205.35-458.667-458.667-458.667-253.315 0-458.667 205.35-458.667 458.667zM512 736c17.673 0 32-14.327 32-32v-13.514c69.564-12.456 128-64.72 128-135.82 0-17.673-14.327-32-32-32s-32 14.327-32 32c0 36.022-37.269 74.667-96 74.667s-96-38.644-96-74.667c0-36.023 37.269-74.667 96-74.667 82.654 0 160-56.866 160-138.667 0-71.1-58.436-123.362-128-135.821v-13.513c0-17.673-14.327-32-32-32s-32 14.327-32 32v13.513c-69.565 12.459-128 64.721-128 135.821 0 17.673 14.327 32 32 32s32-14.327 32-32c0-36.023 37.269-74.667 96-74.667s96 38.643 96 74.667c0 36.023-37.269 74.667-96 74.667-82.654 0-160 56.866-160 138.667 0 71.099 58.435 123.363 128 135.82v13.514c0 17.673 14.327 32 32 32z" />
<glyph unicode="&#xe910;" glyph-name="arrow-left" d="M660.826 770.962c13.419-11.502 14.972-31.703 3.469-45.122l-238.148-277.841 238.148-277.841c11.503-13.419 9.95-33.621-3.469-45.124-13.419-11.499-33.621-9.946-45.12 3.473l-256.002 298.667c-10.272 11.985-10.272 29.666 0 41.651l256.002 298.666c11.499 13.418 31.701 14.973 45.12 3.471z" />
<glyph unicode="&#xe911;" glyph-name="arrow-right" d="M363.175 770.962c13.418 11.502 33.62 9.947 45.122-3.471l256.002-298.666c10.27-11.985 10.27-29.666 0-41.651l-256.002-298.667c-11.502-13.419-31.703-14.972-45.122-3.473-13.418 11.503-14.973 31.706-3.471 45.124l238.15 277.841-238.15 277.841c-11.502 13.419-9.947 33.62 3.471 45.122z" />
<glyph unicode="&#xe912;" glyph-name="user" d="M512 906.667c-111.93 0-202.667-90.737-202.667-202.667s90.737-202.667 202.667-202.667c111.932 0 202.667 90.737 202.667 202.667s-90.735 202.667-202.667 202.667zM373.333 704c0 76.584 62.084 138.667 138.667 138.667s138.667-62.083 138.667-138.667c0-76.584-62.084-138.667-138.667-138.667s-138.667 62.083-138.667 138.667zM512 437.333c-87.011 0-167.359-20.087-227.066-54.204-58.801-33.6-103.601-84.894-103.601-148.463s44.8-114.863 103.601-148.463c59.706-34.116 140.054-54.204 227.066-54.204 87.010 0 167.36 20.087 227.068 54.204 58.799 33.6 103.599 84.894 103.599 148.463s-44.8 114.863-103.599 148.463c-59.708 34.116-140.058 54.204-227.068 54.204zM245.333 234.667c0 30.69 22.059 64.725 71.354 92.894 48.39 27.652 117.373 45.773 195.313 45.773s146.923-18.121 195.311-45.773c49.297-28.169 71.356-62.204 71.356-92.894s-22.059-64.725-71.356-92.894c-48.388-27.652-117.372-45.773-195.311-45.773s-146.923 18.121-195.313 45.773c-49.295 28.169-71.354 62.204-71.354 92.894z" />
<glyph unicode="&#xe913;" glyph-name="star" d="M481.792 818.855c-16.802-21.937-35.763-55.783-63.306-105.193l-13.982-25.082c-0.843-1.512-1.675-3.009-2.499-4.492-12.832-23.091-23.661-42.581-41.112-55.828-17.639-13.39-39.142-18.223-64.132-23.839-1.606-0.361-3.226-0.725-4.861-1.095l-27.151-6.143c-53.56-12.119-89.997-20.457-114.954-30.292-24.354-9.597-29.495-17.461-31.454-23.762-2.068-6.65-2.129-16.822 12.43-39.951 14.778-23.475 39.707-52.753 76.167-95.39l18.51-21.645c1.076-1.259 2.142-2.5 3.197-3.733 17.196-20.058 31.533-36.779 38.109-57.929 6.537-21.022 4.37-43.11 1.743-69.892-0.161-1.643-0.324-3.302-0.487-4.983l-2.799-28.877c-5.508-56.841-9.222-95.979-7.965-124.169 1.253-28.143 7.197-35.921 11.922-39.505 4.203-3.191 11.972-6.724 37.283 0.529 25.722 7.369 59.909 23.010 110.060 46.101l25.42 11.703c1.566 0.721 3.119 1.438 4.655 2.15 23.245 10.743 43.409 20.070 65.412 20.070s42.167-9.327 65.412-20.070c1.54-0.713 3.089-1.429 4.655-2.15l25.421-11.703c50.15-23.091 84.339-38.733 110.063-46.101 25.31-7.253 33.079-3.721 37.282-0.529 4.723 3.584 10.667 11.362 11.921 39.505 1.254 28.19-2.458 67.328-7.966 124.169l-2.799 28.877c-0.162 1.681-0.324 3.341-0.486 4.983-2.624 26.782-4.791 48.87 1.745 69.892 6.575 21.15 20.915 37.871 38.11 57.933 1.054 1.229 2.121 2.47 3.196 3.729l18.509 21.645c36.459 42.637 61.389 71.915 76.169 95.39 14.558 23.13 14.498 33.301 12.429 39.951-1.958 6.301-7.1 14.165-31.454 23.762-24.956 9.836-61.393 18.173-114.953 30.292l-27.153 6.143c-1.634 0.37-3.255 0.734-4.86 1.095-24.99 5.616-46.494 10.448-64.132 23.838-17.451 13.248-28.279 32.737-41.114 55.828-0.823 1.483-1.655 2.981-2.496 4.492l-13.982 25.082c-27.546 49.41-46.507 83.256-63.305 105.193-16.785 21.916-25.357 23.812-30.212 23.812-4.851 0-13.427-1.896-30.208-23.812zM430.98 857.766c20.335 26.559 45.474 48.9 81.020 48.9s60.685-22.342 81.024-48.9c19.985-26.096 41.173-64.113 67.072-110.577l15.3-27.447c16.751-30.045 21.035-36.427 26.411-40.507 5.171-3.927 11.844-6.117 44.416-13.487l29.871-6.758c50.159-11.348 91.482-20.696 121.579-32.556 31.241-12.311 58.577-30.457 69.103-64.301 10.415-33.497-1.293-64.311-19.383-93.051-17.579-27.925-45.658-60.753-79.953-100.86l-20.245-23.676c-22.059-25.792-26.667-32.107-28.834-39.070-2.206-7.104-2.001-15.309 1.331-49.698l3.055-31.492c5.193-53.594 9.429-97.293 7.945-130.577-1.506-33.877-9.203-66.406-37.158-87.633-28.484-21.619-61.619-19.183-93.611-10.018-31.019 8.887-69.687 26.697-116.646 48.316l-27.972 12.881c-30.609 14.093-37.163 16.354-43.302 16.354s-12.693-2.261-43.298-16.354l-27.977-12.881c-46.956-21.619-85.626-39.428-116.644-48.316-31.991-9.165-65.129-11.601-93.609 10.018-27.959 21.227-35.653 53.756-37.162 87.633-1.483 33.284 2.753 76.988 7.948 130.577l3.052 31.492c3.332 34.389 3.54 42.594 1.332 49.698-2.166 6.963-6.774 13.278-28.833 39.070l-20.244 23.676c-34.298 40.102-62.375 72.934-79.954 100.86-18.092 28.74-29.798 59.554-19.382 93.051 10.525 33.844 37.862 51.99 69.103 64.301 30.095 11.86 71.419 21.209 121.58 32.556l29.867 6.758c32.573 7.37 39.247 9.56 44.42 13.487 5.374 4.080 9.658 10.462 26.407 40.507l15.3 27.448c25.9 46.464 47.091 84.481 67.077 110.577z" />
<glyph unicode="&#xe914;" glyph-name="logout" d="M637.666 906.667c-58.347 0.001-105.382 0.002-142.37-4.972-38.404-5.164-70.742-16.209-96.424-41.891-22.397-22.397-33.714-49.92-39.655-82.261-5.772-31.427-6.877-69.886-7.134-116.031-0.098-17.673 14.149-32.079 31.822-32.177s32.079 14.149 32.177 31.821c0.26 46.656 1.472 79.726 6.082 104.825 4.442 24.184 11.576 38.182 21.961 48.569 11.81 11.808 28.39 19.508 59.695 23.717 32.23 4.333 74.944 4.401 136.188 4.401h42.667c61.244 0 103.957-0.068 136.188-4.401 31.309-4.209 47.885-11.908 59.695-23.717s19.507-28.388 23.718-59.695c4.331-32.228 4.399-74.943 4.399-136.187v-341.333c0-61.244-0.068-103.957-4.399-136.188-4.211-31.309-11.908-47.885-23.718-59.695s-28.386-19.507-59.695-23.718c-32.23-4.331-74.944-4.399-136.188-4.399h-42.667c-61.244 0-103.957 0.068-136.188 4.399-31.305 4.211-47.885 11.908-59.695 23.718-10.385 10.389-17.519 24.384-21.961 48.567-4.61 25.101-5.822 58.172-6.082 104.828-0.098 17.673-14.505 31.919-32.177 31.821s-31.92-14.507-31.822-32.179c0.257-46.144 1.361-84.604 7.134-116.028 5.94-32.341 17.257-59.866 39.655-82.266 25.681-25.681 58.019-36.727 96.424-41.89 36.988-4.971 84.023-4.971 142.37-4.971h47.351c58.351 0 105.382 0 142.374 4.971 38.404 5.163 70.737 16.209 96.422 41.89 25.681 25.685 36.727 58.018 41.89 96.422 4.975 36.992 4.971 84.023 4.971 142.374v346.017c0 58.351 0.004 105.383-4.971 142.374-5.163 38.405-16.209 70.74-41.89 96.422-25.685 25.682-58.018 36.728-96.422 41.891-36.992 4.973-84.023 4.972-142.374 4.972h-47.351zM640 480c17.673 0 32-14.327 32-32s-14.327-32-32-32h-468.163l83.654-71.706c13.419-11.499 14.973-31.701 3.471-45.12s-31.703-14.972-45.121-3.469l-149.333 128c-7.093 6.076-11.175 14.955-11.175 24.294s4.082 18.219 11.175 24.294l149.333 128.002c13.418 11.502 33.62 9.948 45.121-3.471s9.948-33.62-3.471-45.121l-83.654-71.704h468.163z" />
<glyph unicode="&#xe915;" glyph-name="home" d="M384 224c-17.673 0-32-14.327-32-32s14.327-32 32-32h256c17.673 0 32 14.327 32 32s-14.327 32-32 32h-256zM512 906.667c-30.212 0-57.664-8.654-87.443-23.136-28.787-13.999-62.043-34.639-103.581-60.419l-88.174-54.723c-39.304-24.393-70.777-43.925-95.035-62.503-25.12-19.238-44.414-38.83-58.351-64.291-13.908-25.408-20.17-52.442-23.173-84.398-2.91-30.967-2.91-68.838-2.909-116.331v-68.809c0-81.229-0.001-145.353 6.515-195.486 6.685-51.43 20.73-92.949 52.465-125.773 31.881-32.981 72.452-47.714 122.677-54.699 48.678-6.767 110.846-6.767 189.194-6.767h175.627c78.349 0 140.518 0 189.197 6.767 50.223 6.985 90.795 21.717 122.675 54.699 31.735 32.823 45.781 74.342 52.467 125.773 6.515 50.133 6.515 114.253 6.515 195.486v68.809c0 47.492 0 85.363-2.91 116.331-3.004 31.956-9.267 58.99-23.172 84.398-13.935 25.461-33.229 45.053-58.351 64.291-24.256 18.577-55.731 38.109-95.036 62.502l-88.175 54.724c-41.536 25.78-74.795 46.42-103.582 60.419-29.777 14.482-57.229 23.136-87.441 23.136zM353.26 767.824c43.339 26.897 73.812 45.764 99.284 58.151 24.819 12.069 42.398 16.691 59.456 16.691s34.637-4.622 59.456-16.691c25.472-12.388 55.945-31.254 99.285-58.152l85.333-52.96c40.994-25.443 69.777-43.348 91.247-59.79 20.89-15.997 32.905-29.199 41.122-44.209 8.247-15.063 13.060-32.674 15.595-59.656 2.594-27.629 2.628-62.496 2.628-111.909v-64.9c0-84.092-0.064-144.051-5.982-189.581-5.811-44.715-16.759-70.66-35.012-89.54-18.103-18.726-42.756-29.845-85.478-35.789-43.759-6.084-101.474-6.157-182.861-6.157h-170.667c-81.388 0-139.101 0.073-182.86 6.157-42.725 5.943-67.374 17.062-85.48 35.789-18.252 18.88-29.2 44.826-35.012 89.54-5.918 45.53-5.981 105.489-5.981 189.581v64.9c0 49.412 0.032 84.279 2.629 111.909 2.535 26.982 7.349 44.593 15.594 59.656 8.216 15.010 20.234 28.212 41.123 44.209 21.469 16.442 50.252 34.347 91.247 59.79l85.333 52.96z" />
<glyph unicode="&#xe916;" glyph-name="menu" d="M885.333 661.333c0-17.673-14.327-32-32-32h-682.667c-17.673 0-32 14.327-32 32s14.327 32 32 32h682.667c17.673 0 32-14.327 32-32zM885.333 448c0-17.673-14.327-32-32-32h-682.667c-17.673 0-32 14.327-32 32s14.327 32 32 32h682.667c17.673 0 32-14.327 32-32zM885.333 234.667c0-17.673-14.327-32-32-32h-682.667c-17.673 0-32 14.327-32 32s14.327 32 32 32h682.667c17.673 0 32-14.327 32-32z" />
<glyph unicode="&#xe917;" glyph-name="celebrate" d="M665.664 857.592c9.378-9.377 8.964-21.174 8.107-27.645-0.811-6.116-2.897-13.443-4.885-20.424l-1.527-5.376 2.761-4.372c3.733-5.912 7.744-12.264 10.202-17.913 2.769-6.373 5.922-17.13-0.021-28.432-5.824-11.086-16.256-14.735-22.895-16.244-6.037-1.373-13.589-1.96-20.774-2.518l-5.892-0.461-3.921-4.76c-4.676-5.687-9.532-11.59-14.11-15.775-4.847-4.434-13.956-11.271-26.637-9.534-13.116 1.796-19.917 11.293-23.206 17.228-2.982 5.374-5.594 12.448-8.026 19.041l-1.715 4.645-4.642 1.716c-6.596 2.432-13.666 5.042-19.042 8.023-5.935 3.291-15.433 10.092-17.229 23.207-1.737 12.682 5.099 21.79 9.536 26.638 4.186 4.576 10.086 9.432 15.774 14.112l4.762 3.919 0.034 0.453 0.427 5.44c0.555 7.183 1.143 14.735 2.517 20.775 1.506 6.637 5.158 17.068 16.243 22.895 11.302 5.94 22.059 2.788 28.433 0.019 5.649-2.456 12.002-6.468 17.911-10.202l4.373-2.758 5.376 1.528c6.98 1.987 14.306 4.072 20.425 4.883 6.468 0.858 18.266 1.271 27.644-8.106zM627.285 819.213l-3.328-0.945-0.879-0.258c-3.217-0.956-9.92-2.948-16.905-1.992-7.151 0.979-13.069 4.82-15.812 6.6l-0.73 0.472-4.309 2.718-0.469-6.010-0.064-0.919c-0.226-3.383-0.687-10.208-3.942-16.408-3.217-6.118-8.521-10.39-11.2-12.55l-0.738-0.596-3.87-3.189 3.302-1.222 0.815-0.292c3.059-1.082 9.809-3.473 14.938-8.601s7.518-11.878 8.602-14.935l0.29-0.815 1.22-3.306 3.191 3.874 0.593 0.736c2.163 2.682 6.434 7.983 12.553 11.199 6.199 3.258 13.026 3.716 16.41 3.942l0.917 0.065 6.012 0.469-2.722 4.309-0.469 0.732c-1.779 2.742-5.619 8.66-6.601 15.81-0.956 6.987 1.037 13.69 1.993 16.907l0.256 0.879 0.947 3.326zM445.231 824.74c9.22 15.079 4.467 34.775-10.611 43.993s-34.774 4.467-43.992-10.612c-22.11-36.167-16.569-82.772 13.405-112.746l4.176-4.176c8.434-8.433 11.543-20.823 8.093-32.24-5.114-16.917 4.455-34.776 21.373-39.89s34.778 4.455 39.889 21.372c10.278 34 1.015 70.897-24.098 96.013l-4.177 4.176c-9.067 9.068-10.743 23.168-4.058 34.11zM327.948 791.869c-8.937 8.937-23.428 8.937-32.365 0s-8.937-23.427 0-32.365c8.937-8.937 23.428-8.937 32.365 0s8.937 23.427 0 32.365zM779.844 720.9c3.465 17.33-7.774 34.188-25.105 37.654s-34.189-7.773-37.653-25.103l-6.144-30.717c-3.951-19.754-18.185-35.876-37.295-42.247-40.9-13.633-71.36-48.136-79.812-90.411l-6.144-30.717c-3.465-17.328 7.774-34.19 25.101-37.655 17.331-3.465 34.189 7.774 37.658 25.105l6.144 30.715c3.947 19.754 18.18 35.876 37.291 42.247 40.9 13.633 71.36 48.136 79.817 90.411l6.144 30.717zM961.007 582.74c10.918-23.633 3.55-50.464-16.38-70.394-11.558-11.558-27.046-16.794-40.841-19.247-14.11-2.509-29.026-2.56-42.091-1.719-13.197 0.841-25.293 2.645-34.044 4.215-4.395 0.794-8 1.532-10.543 2.086l-1.975 0.439-1.020 0.235-1.088 0.26-0.081 0.017c-0.004 0-0.047 0.013 5.077 20.719l-5.124-20.706c-7.68 1.903-13.683 7.91-15.586 15.59l-0.026 0.119-0.060 0.247-0.201 0.841c-0.166 0.713-0.397 1.724-0.674 2.995-0.55 2.543-1.293 6.148-2.082 10.543-1.574 8.749-3.375 20.848-4.22 34.043-0.836 13.066-0.789 27.981 1.719 42.091 2.453 13.793 7.689 29.281 19.247 40.839 19.93 19.931 46.763 27.298 70.396 16.381 17.924-8.28 29.585-25.039 33.98-45.617 20.574-4.392 37.333-16.052 45.615-33.979zM836.1 537.43c7.599-1.339 17.638-2.79 28.322-3.473 11.234-0.721 22.413-0.536 31.893 1.149 9.796 1.743 15.398 4.666 18.138 7.408 10.359 10.357 9.566 18.548 7.821 22.334-1.903 4.113-8.713 11.214-26.197 11.167-5.679-0.015-11.127 2.234-15.142 6.248s-6.263 9.464-6.246 15.142c0.047 17.485-7.057 24.297-11.17 26.196-3.785 1.748-11.977 2.54-22.332-7.817-2.743-2.741-5.666-8.342-7.407-18.139-1.69-9.481-1.869-20.657-1.152-31.895 0.683-10.682 2.133-20.724 3.473-28.32zM867.452 374.208c12.604 11.179 30.549 14.012 45.982 7.262l12.437-5.436c16.192-7.083 35.059 0.307 42.142 16.499 7.078 16.192-0.307 35.059-16.499 42.142l-12.437 5.436c-38.289 16.742-82.82 9.711-114.086-18.018-13.918-12.339-34.167-14.391-50.278-5.090l-9.079 5.244c-15.309 8.836-34.88 3.593-43.716-11.712s-3.593-34.876 11.716-43.712l9.079-5.244c39.966-23.074 90.214-17.988 124.74 12.629zM813.154 306.641c8.939 8.934 23.428 8.934 32.367 0 8.939-8.939 8.939-23.428 0-32.367s-23.428-8.939-32.367 0c-8.934 8.939-8.934 23.428 0 32.367zM551.074 654.639c-8.939 8.937-23.428 8.937-32.367 0-8.934-8.937-8.934-23.427 0-32.365 8.939-8.937 23.428-8.937 32.367 0 8.934 8.937 8.934 23.427 0 32.365zM732.041 526.639c8.939 8.938 23.428 8.938 32.367 0 8.934-8.939 8.934-23.428 0-32.363-8.939-8.939-23.428-8.939-32.367 0-8.934 8.934-8.934 23.424 0 32.363zM411.262 666.252c25.017-18.548 53.8-47.332 88.727-82.263l147.955-147.953c34.931-34.931 63.714-63.714 82.261-88.73 19.162-25.847 32.666-54.571 24.858-87.65s-32.734-52.732-61.431-67.281c-27.776-14.080-66.394-26.953-113.254-42.569l-221.454-73.818c-56.741-18.914-102.786-34.266-138.49-40.619-36.028-6.409-72.587-5.76-99.728 21.38s-27.787 63.701-21.378 99.729c6.352 35.703 21.702 81.749 40.618 138.496l73.815 221.444c15.62 46.864 28.49 85.48 42.572 113.257 14.548 28.698 34.2 53.622 67.28 61.431s61.804-5.695 87.65-24.857zM373.145 614.84c-0.746 0.553-1.476 1.086-2.192 1.6-0.491-2.657-1.013-5.512-1.561-8.552-3.626-20.122-8.378-48.261-12.87-80.276-9.072-64.657-16.745-142.818-12.817-202.714 2.378-36.262 10.144-83.17 17.557-121.873 3.671-19.166 7.19-35.985 9.79-48.004 0.556-2.569 1.068-4.915 1.532-7.019l112.413 37.474c-2.953 8.768-6.494 20.062-10.031 33.207-8.491 31.565-17.271 74.978-17.271 120.294 0 47.586 8.742 90.991 17.314 122.227 4.305 15.701 8.627 28.535 11.917 37.547 0.764 2.099 1.476 3.994 2.121 5.675l-32.418 32.416c-37.298 37.298-62.741 62.621-83.482 77.998zM273.63 493.641c8.916 26.748 16.332 48.922 23.088 67.285-1.193-7.831-2.392-15.994-3.575-24.422-9.179-65.417-17.681-149.001-13.301-215.791 2.65-40.418 11.059-90.551 18.563-129.728 3.787-19.772 7.412-37.099 10.093-49.493 1.239-5.726 2.278-10.411 3.040-13.803-44.408-14.665-77.124-24.823-102.314-29.303-30.753-5.474-39.262-0.38-43.264 3.622-4.001 3.998-9.093 12.51-3.622 43.26 5.43 30.524 19.197 72.090 39.206 132.122l72.085 216.252zM557.598 209.677l-11.887-3.964c-2.598 7.706-5.769 17.792-8.943 29.594-2.3 8.542-4.57 17.877-6.626 27.776-4.817 23.206-8.448 49.502-8.448 75.895 0 40.115 7.428 77.581 15.031 105.293 0.93 3.396 1.865 6.63 2.778 9.694l61.295-61.295c37.299-37.295 62.622-62.741 77.999-83.482 15.095-20.361 15.296-29.239 13.978-34.829-1.318-5.585-5.47-13.436-28.079-24.896-23.031-11.678-57.058-23.108-107.098-39.787z" />
<glyph unicode="&#xe918;" glyph-name="copy" d="M640 906.667h-173.073c-78.412 0.001-140.519 0.001-189.125-6.534-50.023-6.725-90.512-20.896-122.442-52.826s-46.1-72.419-52.826-122.442c-6.535-48.606-6.535-110.713-6.534-189.124v-258.408c0-79.881 58.541-146.091 135.062-158.067 5.887-32.597 17.153-60.42 39.801-83.072 25.682-25.681 58.018-36.727 96.422-41.89 36.991-4.971 84.021-4.971 142.372-4.971h132.685c58.351 0 105.382 0 142.374 4.971 38.404 5.163 70.737 16.209 96.422 41.89 25.681 25.685 36.727 58.018 41.89 96.422 4.971 36.992 4.971 84.023 4.971 142.374v218.018c0 58.349 0 105.382-4.971 142.372-5.163 38.405-16.209 70.74-41.89 96.422-22.652 22.648-50.475 33.914-83.072 39.801-11.977 76.521-78.187 135.062-158.067 135.062zM730.85 777.763c-12.919 37.757-48.713 64.903-90.85 64.903h-170.667c-81.358 0-139.157-0.068-183.004-5.963-42.927-5.771-67.658-16.594-85.715-34.651s-28.88-42.789-34.651-85.715c-5.895-43.847-5.963-101.646-5.963-183.004v-256c0-42.138 27.146-77.931 64.903-90.85-0.904 26.022-0.904 55.45-0.903 88.508v218.018c-0.001 58.349-0.002 105.382 4.972 142.372 5.164 38.405 16.209 70.74 41.891 96.422s58.018 36.728 96.422 41.891c36.991 4.973 84.021 4.972 142.372 4.972h132.685c33.058 0 62.485 0.001 88.508-0.903zM316.118 686.549c11.808 11.808 28.388 19.508 59.695 23.717 32.228 4.333 74.943 4.401 136.187 4.401h128c61.244 0 103.957-0.068 136.188-4.401 31.309-4.209 47.885-11.908 59.695-23.717s19.507-28.388 23.718-59.695c4.331-32.228 4.399-74.942 4.399-136.187v-213.333c0-61.244-0.068-103.957-4.399-136.188-4.211-31.309-11.908-47.885-23.718-59.695s-28.386-19.507-59.695-23.718c-32.23-4.331-74.944-4.399-136.188-4.399h-128c-61.244 0-103.959 0.068-136.187 4.399-31.308 4.211-47.887 11.908-59.695 23.718s-19.508 28.386-23.717 59.695c-4.333 32.23-4.401 74.944-4.401 136.188v213.333c0 61.245 0.068 103.959 4.401 136.187 4.209 31.308 11.908 47.887 23.717 59.695z" />
<glyph unicode="&#xe919;" glyph-name="bell" d="M512 906.667c-182.621 0-330.665-148.044-330.665-330.667v-30.042c0-29.734-8.802-58.807-25.296-83.546l-49.007-73.51c-56.879-85.321-13.456-201.289 85.47-228.267 32.239-8.794 64.751-16.23 97.451-22.315l0.081-0.218c32.81-87.548 120.503-148.77 221.966-148.77s189.154 61.222 221.965 148.77l0.081 0.218c32.7 6.084 65.216 13.521 97.455 22.315 98.927 26.978 142.349 142.946 85.47 228.267l-49.007 73.51c-16.495 24.738-25.297 53.811-25.297 83.546v30.042c0 182.622-148.045 330.667-330.667 330.667zM656.060 126.421c-95.697-11.435-192.427-11.43-288.124 0.004 30.334-43.588 83.094-73.092 144.064-73.092 60.966 0 113.728 29.504 144.060 73.088zM245.335 576c0 147.276 119.391 266.667 266.665 266.667 147.277 0 266.667-119.391 266.667-266.667v-30.042c0-42.372 12.544-83.793 36.045-119.049l49.007-73.51c32.649-48.969 7.727-115.533-49.058-131.021-198.153-54.042-407.164-54.042-605.319 0-56.782 15.488-81.705 82.052-49.058 131.021l49.007 73.51c23.503 35.255 36.045 76.676 36.045 119.049v30.042z" />
<glyph unicode="&#xe91a;" glyph-name="calculator" d="M509.551 906.667h4.898c98.492 0 175.676 0.001 235.9-8.096 61.641-8.288 110.285-25.582 148.463-63.761s55.471-86.819 63.761-148.462c8.094-60.223 8.094-137.409 8.094-235.899v-4.898c0-98.492 0-175.676-8.094-235.9-8.29-61.641-25.583-110.285-63.761-148.463s-86.822-55.471-148.463-63.761c-60.224-8.094-137.408-8.094-235.9-8.094h-4.898c-98.49 0-175.676 0-235.899 8.094-61.642 8.29-110.283 25.583-148.462 63.761s-55.473 86.822-63.761 148.463c-8.097 60.224-8.096 137.408-8.096 235.9v4.898c0 98.49-0.001 175.676 8.096 235.899 8.288 61.642 25.582 110.283 63.761 148.462s86.819 55.473 148.462 63.761c60.223 8.097 137.409 8.096 235.899 8.096zM282.179 835.142c-54.545-7.334-87.43-21.281-111.735-45.586s-38.253-57.189-45.586-111.735c-7.457-55.466-7.525-128.349-7.525-229.821 0-101.47 0.068-174.353 7.525-229.82 7.334-54.545 21.281-87.428 45.586-111.735s57.189-38.255 111.735-45.585c55.466-7.458 128.349-7.526 229.821-7.526 101.47 0 174.353 0.068 229.82 7.526 54.545 7.33 87.428 21.278 111.735 45.585s38.255 57.19 45.585 111.735c7.458 55.467 7.526 128.35 7.526 229.82s-0.068 174.355-7.526 229.821c-7.33 54.545-21.278 87.43-45.585 111.735s-57.19 38.253-111.735 45.586c-55.467 7.457-128.35 7.525-229.82 7.525-101.471 0-174.355-0.068-229.821-7.525zM341.333 714.668c17.673 0 32-14.327 32-32v-53.334h53.333c17.673 0 32-14.327 32-32s-14.327-32-32-32h-53.333v-53.334c0-17.673-14.327-32-32-32s-32 14.327-32 32v53.334h-53.333c-17.673 0-32 14.327-32 32s14.327 32 32 32h53.333v53.334c0 17.673 14.327 32 32 32zM565.333 597.334c0 17.673 14.327 32 32 32h170.667c17.673 0 32-14.327 32-32s-14.327-32-32-32h-170.667c-17.673 0-32 14.327-32 32zM565.333 341.333c0 17.673 14.327 32 32 32h170.667c17.673 0 32-14.327 32-32s-14.327-32-32-32h-170.667c-17.673 0-32 14.327-32 32zM254.706 363.959c12.497 12.497 32.758 12.497 45.255 0l41.373-41.37 41.372 41.37c12.497 12.497 32.758 12.497 45.254 0s12.497-32.755 0-45.252l-41.371-41.374 41.371-41.374c12.497-12.497 12.497-32.755 0-45.252s-32.757-12.497-45.254 0l-41.372 41.37-41.373-41.37c-12.497-12.497-32.758-12.497-45.255 0s-12.497 32.755 0 45.252l41.373 41.374-41.373 41.374c-12.497 12.497-12.497 32.755 0 45.252zM565.333 213.333c0 17.673 14.327 32 32 32h170.667c17.673 0 32-14.327 32-32s-14.327-32-32-32h-170.667c-17.673 0-32 14.327-32 32z" />
</font>
</defs>
</svg>
